<?xml version="1.0" encoding="UTF-8" standalone="no"?>
<svg
   version="1.1"
   viewBox="0 0 1400 563"
   id="svg852"
   sodipodi:docname="logo.svg"
   width="1400"
   height="563"
   inkscape:version="1.2.2 (732a01da63, 2022-12-09)"
   xmlns:inkscape="http://www.inkscape.org/namespaces/inkscape"
   xmlns:sodipodi="http://sodipodi.sourceforge.net/DTD/sodipodi-0.dtd"
   xmlns="http://www.w3.org/2000/svg"
   xmlns:svg="http://www.w3.org/2000/svg">
  <defs
     id="defs856" />
  <sodipodi:namedview
     id="namedview854"
     pagecolor="#ffffff"
     bordercolor="#000000"
     borderopacity="0.25"
     inkscape:showpageshadow="2"
     inkscape:pageopacity="0.0"
     inkscape:pagecheckerboard="0"
     inkscape:deskcolor="#d1d1d1"
     showgrid="false"
     inkscape:zoom="0.47266093"
     inkscape:cx="574.40754"
     inkscape:cy="280.3278"
     inkscape:window-width="1920"
     inkscape:window-height="1002"
     inkscape:window-x="-8"
     inkscape:window-y="-8"
     inkscape:window-maximized="1"
     inkscape:current-layer="svg852" />
  <path
     fill="#fe5000"
     d="m 243.28358,246.76227 c -47.02,-46.94 -121.7,-46.85 -168.909996,-0.03 q -0.48,0.48 -0.76,-0.15 c -27.77,-63.3 18.7,-133.47 87.919996,-131.63 66.82,1.78 109.37,70.79 82.47,131.68 a 0.45,0.44 34.5 0 1 -0.72,0.13 z"
     id="path728" />
  <path
     fill="#fe5000"
     d="m 366.01359,248.05227 -0.98,1.67 -4.62,3.31 a 0.64,0.64 0 0 1 -0.86,-0.11 l -23.32,-27.67 q -0.41,-0.48 -0.89,-0.08 l -7.80001,6.54 q -0.48,0.4 -0.08,0.88 l 27.60001,33.01 q 0.02,-0.41 -0.22,0.3 -5.71,7.48 -12.97,13.5 0.12,-1.39 0.99,-2.42 a 1.35,1.36 45.2 0 0 0.01,-1.76 l -14.07001,-16.84 a 0.42,0.41 49.5 0 0 -0.58,-0.05 l -19.19,16.11 q -0.49,0.41 -0.08,0.89 l 5.12,6.04 q 0.31,0.36 0.68,0.05 l 10.32,-8.69 q 0.45,-0.37 0.82,0.08 l 3.89,4.64 a 0.68,0.66 41.3 0 1 0.06,0.79 c -6.69,10.52 -23.46,24.25 -34.89,12.07 -7.69,-8.19 -3.06,-17.98 4.01,-24.67 q 10.23,-9.67 23.21,-12.89 a 0.17,0.17 0 0 0 0.09,-0.28 l -5.92,-7.11 q -0.2,-0.24 -0.5,-0.13 -16.61,6.19 -27.73,18.92 -3.44,3.93 -5.78,9 -5.67,12.27 2.49,23.06 1.98,2.63 4.32,5.18 -8.87,0.82 -17.57,-0.2 -0.31,0.04 -0.35,-0.03 l -10.54,-12.53 q -0.42,-0.5 -0.94,-0.11 -4.9,3.64 -8.31,8.09 l -8.47,-3.24 q -0.54,-0.21 -0.13,-0.62 c 47.01,-46.99 46.86,-122.14 -0.15,-169.05 a 0.33,0.33 0 0 1 0.1,-0.53 c 34.5,-15.09 73.42,-9.26 101.05001,15.79 q 23.15,20.99 29.17,51.22 5.83,29.22 -6.99,57.87 z"
     id="path730" />
  <path
     fill="#e04600"
     d="m 365.03359,249.72227 q -4.14,8.61 -9.97,15.88 l -27.60001,-33.01 q -0.4,-0.48 0.08,-0.88 l 7.80001,-6.54 q 0.48,-0.4 0.89,0.08 l 23.32,27.67 a 0.64,0.64 0 0 0 0.86,0.11 z"
     id="path736"
     style="fill:#fe5000;fill-opacity:1" />
  <path
     fill="#fe5000"
     d="m 174.17358,383.15227 q -0.01,-0.05 -0.03,-0.1 l -16.17,13.82 a 0.57,0.58 50.2 0 1 -0.82,-0.07 l -10.39,-12.43 a 0.72,0.72 0 0 0 -1.01,-0.09 l -7.96,6.63 a 0.41,0.41 0 0 0 -0.06,0.57 l 26.86,32.5 q -8.35,0.66 -16.5,-0.42 l -11.21,-1.87 -15.17,-5.17 q 0.1,-1 0.85,-1.36 4.99,-2.38 8.43,-3.43 a 0.19,0.19 0 0 0 0.09,-0.31 l -5.66,-6.62 a 0.31,0.33 59.4 0 0 -0.38,-0.09 q -6.39,2.79 -12.15,6.56 -0.41,0.26 -0.35,0.65 -0.56,-0.4 -0.53,-0.22 -15.929996,-9.39 -26.629996,-23.09 c -40.21,-51.45 -17.15,-126.32 44.639996,-146.75 22.02,-7.28 46.1,-5.64 67.23,3.8 a 0.34,0.34 0 0 1 0.11,0.55 c -36.12,36.4 -45.7,90.06 -23.19,136.94 z"
     id="path740" />
  <path
     fill="#e04600"
     d="m 341.87359,279.40227 -4.55,3.89 q -20.99001,15.19 -46.90001,18.16 l -1.28,-0.06 q -2.34,-2.55 -4.32,-5.18 -8.16,-10.79 -2.49,-23.06 2.34,-5.07 5.78,-9 11.12,-12.73 27.73,-18.92 0.3,-0.11 0.5,0.13 l 5.92,7.11 a 0.17,0.17 0 0 1 -0.09,0.28 q -12.98,3.22 -23.21,12.89 c -7.07,6.69 -11.7,16.48 -4.01,24.67 11.43,12.18 28.2,-1.55 34.89,-12.07 a 0.68,0.66 41.3 0 0 -0.06,-0.79 l -3.89,-4.64 q -0.37,-0.45 -0.82,-0.08 l -10.32,8.69 q -0.37,0.31 -0.68,-0.05 l -5.12,-6.04 q -0.41,-0.48 0.08,-0.89 l 19.19,-16.11 a 0.42,0.41 49.5 0 1 0.58,0.05 l 14.07001,16.84 a 1.35,1.36 45.2 0 1 -0.01,1.76 q -0.87,1.03 -0.99,2.42 z"
     id="path742"
     style="fill:#fe5000;fill-opacity:1" />
  <path
     fill="#e04600"
     d="m 271.22358,301.16227 q -8.72,-0.91 -16.81,-3.37 l -2.98,-1.18 q 3.41,-4.45 8.31,-8.09 0.52,-0.39 0.94,0.11 z"
     id="path746"
     style="fill:#fe5000;fill-opacity:1" />
  <path
     fill="#fe5000"
     d="m 231.93358,316.90227 c -1.9,0.99 -3.97,0.2 -5.86,0.25 q -0.53,0.01 -0.93,0.35 l -8.91,7.58 a 0.5,0.5 0 0 0 -0.06,0.7 l 29.39,35.02 a 0.4,0.39 49.6 0 0 0.56,0.05 l 8.01,-6.78 a 0.53,0.53 0 0 0 0.07,-0.75 l -21,-25.01 q -0.6,-0.71 0.33,-0.62 22.81,2.23 45.53,4.45 1.33,0.13 2.44,-0.77 2.52,-2.04 3.82,-3.94 l 1.36,0.06 q 46.49,-2.84 79.01001,-35.12 a 0.52,0.52 0 0 1 0.84,0.16 c 11.77,27.02 11.01,57.38 -3.36,83.31 -31.53001,56.9 -108.76001,64.93 -151.99001,16.76 l 1.71,-2.32 q 0.27,-0.36 -0.02,-0.7 l -13.25,-15.69 q -0.3,-0.35 -0.76,-0.35 l -0.66,0.02 q -0.19,-1.09 -0.86,-1.55 -18.34,-39.23 -1.37,-79.33 0.36,-0.87 1.02,-0.2 11.77,11.83 26.68,20.03 4.03,2.22 8.26,4.39 z m -28.5561,19.4738 a 0.37,0.37 0 0 0 -0.5213,-0.0456 l -8.212,6.8906 a 0.37,0.37 0 0 0 -0.0456,0.5213 l 29.4911,35.1461 a 0.37,0.37 0 0 0 0.5213,0.0456 l 8.212,-6.8906 a 0.37,0.37 0 0 0 0.0456,-0.5213 z"
     id="path748" />
  <path
     fill="#e04600"
     d="m 231.93358,316.90227 3.92,1.47 q 23.49,10.01 49.47,9.06 -1.3,1.9 -3.82,3.94 -1.11,0.9 -2.44,0.77 -22.72,-2.22 -45.53,-4.45 -0.93,-0.09 -0.33,0.62 l 21,25.01 a 0.53,0.53 0 0 1 -0.07,0.75 l -8.01,6.78 a 0.4,0.39 49.6 0 1 -0.56,-0.05 l -29.39,-35.02 a 0.5,0.5 0 0 1 0.06,-0.7 l 8.91,-7.58 q 0.4,-0.34 0.93,-0.35 c 1.89,-0.05 3.96,0.74 5.86,-0.25 z"
     id="path752"
     style="opacity:1;fill:#fe5000;fill-opacity:1" />
  <rect
     fill="#e04600"
     x="-71.882179"
     y="388.03751"
     transform="rotate(-40)"
     width="11.46"
     height="46.619999"
     rx="0.37"
     id="rect754"
     style="fill:#fe5000;fill-opacity:1" />
  <path
     fill="#e04600"
     d="m 198.20358,373.56227 0.66,-0.02 q 0.46,0 0.76,0.35 l 13.25,15.69 q 0.29,0.34 0.02,0.7 l -1.71,2.32 -1.24,-1.45 q -6.75,-7.93 -11.74,-17.59 z"
     id="path758" />
  <path
     fill="#e04600"
     d="m 174.14358,383.05227 4.57,8.5 -14.94,12.3 q -0.4,0.33 -0.07,0.74 l 11.9,14.17 a 1.16,1.16 0 0 1 -0.11,1.61 l -3.16,2.83 q -0.52,-0.02 -1.07,0.22 l -5.47,0.58 -1.2,-0.02 -26.86,-32.5 a 0.41,0.41 0 0 1 0.06,-0.57 l 7.96,-6.63 a 0.72,0.72 0 0 1 1.01,0.09 l 10.39,12.43 a 0.57,0.58 50.2 0 0 0.82,0.07 z"
     id="path760"
     style="fill:#fe5000;fill-opacity:1" />
  <path
     fill="#fe5000"
     d="m 178.71358,391.55227 q -0.03,-0.1 -0.07,-0.2 7.96,13.34 18.77,23.99 a 0.29,0.29 0 0 1 -0.08,0.47 q -11.87,5.52 -25,7.39 l 3.16,-2.83 a 1.16,1.16 0 0 0 0.11,-1.61 l -11.9,-14.17 q -0.33,-0.41 0.07,-0.74 z"
     id="path762" />
  <path
     fill="#e04600"
     d="m 121.71358,416.52227 q -0.34,-0.28 -0.99,-0.45 l -8.18,-4.15 q -0.06,-0.39 0.35,-0.65 5.76,-3.77 12.15,-6.56 a 0.31,0.33 59.4 0 1 0.38,0.09 l 5.66,6.62 a 0.19,0.19 0 0 1 -0.09,0.31 q -3.44,1.05 -8.43,3.43 -0.75,0.36 -0.85,1.36 z"
     id="path764"
     style="fill:#fe5000;fill-opacity:1" />
  <path
     fill="#e1d3d6"
     d="m 171.26358,423.42227 -3.3,2.97 q -0.39,0.36 -0.84,0.06 -1.11,-0.77 -1.33,-2.45 z"
     id="path770" />
  <path
     fill="#fe5000"
     d="m 854.50744,301.74866 c 1.34,-10.28 -6.77,-15.22 -15.38,-17.47 q -10.98,-2.87 -22.02,-5.75 c -6.43,-1.68 -13.31,-4.32 -18.15,-8.89 -13.9,-13.1 -7.26,-35.49 10.21,-41.6 q 18.6,-6.5 36.41,0.17 16.86,6.31 18.98,25.95 0.07,0.7 -0.63,0.76 l -11.56,0.88 q -0.61,0.04 -0.69,-0.56 c -2.21,-17.3 -16.74,-19.94 -31.17,-18.19 q -7.58,0.92 -11.86,4.95 c -6.19,5.84 -5.98,16.17 2.07,20.14 q 4.76,2.34 10.49,3.79 8.09,2.04 16.43,4.06 c 8.24,1.99 17.54,5 23.32,11.43 q 9.2,10.25 5.44,24.54 c -3.23,12.29 -14.48,19.73 -26.83,21.85 q -11.26,1.93 -24.06,-0.64 c -16.12,-3.24 -27,-15.28 -27.87,-31.89 q -0.03,-0.56 0.53,-0.61 l 11.47,-0.97 q 0.57,-0.04 0.64,0.52 c 1.29,9.91 6.01,16.77 15.93,20.22 q 11.26,3.93 23.35,1.16 c 7.15,-1.63 13.95,-6.22 14.95,-13.85 z"
     id="path778" />
  <path
     fill="#fe5000"
     d="m 481.40744,315.08866 60.87,0.01 a 0.38,0.38 0 0 1 0.38,0.38 l 0.01,11.1 a 0.38,0.38 0 0 1 -0.38,0.38 l -74.18,-0.01 a 0.38,0.38 0 0 1 -0.38,-0.38 v -99.6 a 0.38,0.38 0 0 1 0.38,-0.38 h 71.84 a 0.38,0.38 0 0 1 0.38,0.38 l 0.01,11.08 a 0.38,0.38 0 0 1 -0.38,0.38 l -58.56,-0.01 a 0.38,0.38 0 0 0 -0.38,0.38 v 29.97 a 0.38,0.38 0 0 0 0.38,0.38 h 54.76 a 0.38,0.38 0 0 1 0.38,0.38 l 0.02,11.05 a 0.38,0.38 0 0 1 -0.38,0.38 l -54.78,-0.01 a 0.38,0.38 0 0 0 -0.38,0.38 l 0.01,33.38 a 0.38,0.38 0 0 0 0.38,0.38 z"
     id="path780" />
  <path
     fill="#fe5000"
     d="m 626.76744,292.43866 q -5.57,4.32 -9.55,10 -2.9,-4.57 -8.34,-11.58 -3.52,-4.53 -8.23,-6.77 -3.46,-1.64 -10.13,-1.74 -7.99,-0.11 -15.58,0.05 a 0.5,0.5 0 0 0 -0.49,0.5 v 43.46 q 0,0.55 -0.54,0.55 l -12.2,-0.01 q -0.53,0 -0.53,-0.53 v -99.44 a 0.34,0.34 0 0 1 0.34,-0.34 q 22.13,0.01 45.23,0 c 10.13,-0.01 22.06,1.07 28.41,9.37 q 8.7,11.38 5.28,25.41 c -2.92,11.99 -14.81,18.54 -26.19,19.6 q -1.52,0.15 -0.14,0.81 7.76,3.75 12.66,10.66 z m -52.26,-54.43 -0.12,32.26 a 0.48,0.48 0 0 0 0.48,0.48 l 33.6,0.12 a 19.12,15.47 0.2 0 0 19.18,-15.41 v -2.28 a 19.12,15.47 0.2 0 0 -19.06,-15.53 l -33.6,-0.12 a 0.48,0.48 0 0 0 -0.48,0.48 z"
     id="path782" />
  <path
     fill="#fe5000"
     d="m 706.78744,226.90866 -5.68,4.93 q -0.39,0.34 -0.31,0.84 l 1,5.81 q -0.16,-0.15 -0.66,-0.02 l -25.28,-0.04 a 0.36,0.36 0 0 0 -0.36,0.36 l 0.01,19.09 -0.09,1.71 -4.99,-1.48 q -0.45,-0.14 -0.83,0.15 l -7.36,5.5 -0.01,-36.66 a 0.5,0.5 0 0 1 0.5,-0.5 z"
     id="path784" />
  <path
     fill="#fe5000"
     d="m 899.69744,296.78866 -10.85,29.91 a 0.3,0.3 0 0 1 -0.28,0.2 l -13.47,0.01 a 0.3,0.3 0 0 1 -0.28,-0.41 l 38.29,-99.72 a 0.3,0.3 0 0 1 0.28,-0.19 h 13.91 a 0.3,0.3 0 0 1 0.28,0.19 l 40.81,99.71 a 0.3,0.3 0 0 1 -0.28,0.41 h -14.48 a 0.3,0.3 0 0 1 -0.28,-0.19 l -11.54,-29.93 a 0.3,0.3 0 0 0 -0.28,-0.19 h -41.55 a 0.3,0.3 0 0 0 -0.28,0.2 z m 13.66,-36.98 q -4.48,11.76 -9.58,25.51 -0.14,0.39 0.28,0.39 l 32.87,0.01 q 0.79,0 0.5,-0.74 -9.16,-23.11 -17.29,-47.14 -0.18,-0.51 -0.29,0.02 -2.35,11.09 -6.49,21.95 z"
     id="path786" />
  <path
     fill="#fe5000"
     d="m 1061.7074,244.62866 q 0,-1.6 -0.52,-0.09 l -28.38,81.74 q -0.22,0.63 -0.88,0.63 l -10.76,-0.02 q -0.6,0 -0.79,-0.57 l -28.45996,-83.76 q -0.35,-1.04 -0.35,0.06 l 0.02,83.67 q 0,0.62 -0.61,0.61 h -11.99 q -0.24,0 -0.24,-0.25 v -99.84 q 0,-0.22 0.21,-0.22 h 19.48996 a 0.47,0.48 80.6 0 1 0.45,0.32 l 28.26,84.77 q 0.23,0.69 0.45,0 c 9.18,-28.39 19.24,-56.55 28.95,-84.8 a 0.43,0.42 9.7 0 1 0.4,-0.28 l 16.89,-0.01 q 0.67,0 0.67,0.67 l -0.04,99.15 a 0.41,0.41 0 0 1 -0.4,0.41 l -11.73,0.07 q -0.64,0.01 -0.64,-0.63 z"
     id="path788" />
  <path
     fill="#fe5000"
     d="m 1109.2174,286.79866 v 39.55 q 0,0.55 -0.55,0.55 l -12.08,-0.01 q -0.65,0 -0.65,-0.64 l 0.01,-99.19 a 0.46,0.46 0 0 1 0.45,-0.46 q 16.08,-0.02 33.46,-0.01 c 13.8,0.01 30.36,-0.66 38.47,13.21 6.45,11.02 5.51,25.98 -2.69,36.06 -6.51,7.99 -17.98,10.14 -27.87,10.21 q -14.64,0.09 -27.83,0.01 a 0.71,0.72 0.4 0 0 -0.72,0.72 z m -0.03,-47.98 0.06,35.06 a 0.37,0.37 0 0 0 0.37,0.37 l 31.52,-0.05 a 16.68,17.73 89.9 0 0 17.7,-16.71 v -2.44 a 16.68,17.73 89.9 0 0 -17.76,-16.65 l -31.52,0.05 a 0.37,0.37 0 0 0 -0.37,0.37 z"
     id="path790" />
  <path
     fill="#fe5000"
     d="m 1202.5974,315.08866 48.63,0.01 a 0.41,0.41 0 0 1 0.41,0.41 l 0.01,11.03 a 0.41,0.41 0 0 1 -0.41,0.41 l -61.9,0.01 a 0.41,0.41 0 0 1 -0.41,-0.41 v -99.56 a 0.41,0.41 0 0 1 0.41,-0.41 l 12.43,0.03 a 0.41,0.41 0 0 1 0.41,0.41 l 0.01,87.66 a 0.41,0.41 0 0 0 0.41,0.41 z"
     id="path792" />
  <path
     fill="#fe5000"
     d="m 1281.3474,315.08866 60.9,0.01 a 0.37,0.37 0 0 1 0.37,0.37 l 0.01,11.12 a 0.37,0.37 0 0 1 -0.37,0.37 l -74.2,-0.01 a 0.37,0.37 0 0 1 -0.37,-0.37 v -99.62 a 0.37,0.37 0 0 1 0.37,-0.37 h 71.84 a 0.37,0.37 0 0 1 0.37,0.37 l 0.01,11.1 a 0.37,0.37 0 0 1 -0.37,0.37 l -58.56,-0.01 a 0.37,0.37 0 0 0 -0.37,0.37 v 29.98 a 0.37,0.37 0 0 0 0.37,0.37 l 54.76,0.01 a 0.37,0.37 0 0 1 0.37,0.37 l 0.01,11.07 a 0.37,0.37 0 0 1 -0.37,0.37 l -54.77,-0.01 a 0.37,0.37 0 0 0 -0.37,0.37 v 33.4 a 0.37,0.37 0 0 0 0.37,0.37 z"
     id="path794" />
  <path
     fill="#e04600"
     d="m 706.78744,226.90866 q 0.09,-0.09 0.44,-0.17 l 11.03,1.37 1.87,0.65 q -0.06,1.18 0.48,1.84 5.25,6.47 16.25,19.26 c 0.43,0.5 0.96,0.68 1.56,0.85 l 0.21,1.7 -0.32,9.21 q -0.26,0.3 -0.11,0.34 l -2.77,2.15 a 1.36,1.35 51.3 0 1 -1.88,-0.21 q -3.59,-4.37 -7.17,-8.49 -0.24,-0.28 -0.55,-0.4 -0.28,-0.11 -0.66,-0.23 l -0.23,-1.36 q -1.36,-10.41 -10.73,-13.92 -0.63,0.03 -1.35,-0.32 l -11.06,-0.69 -1,-5.81 q -0.08,-0.5 0.31,-0.84 z"
     id="path796"
     style="fill:#fe5000;fill-opacity:1" />
  <path
     fill="#fe5000"
     d="m 720.12744,228.75866 c 10.27,2.61 16.83,11.7 18.29,21.95 -0.6,-0.17 -1.13,-0.35 -1.56,-0.85 q -11,-12.79 -16.25,-19.26 -0.54,-0.66 -0.48,-1.84 z"
     id="path798" />
  <path
     fill="#fe5000"
     d="m 725.16744,254.77866 q 0.38,0.12 0.66,0.23 0.31,0.12 0.55,0.4 3.58,4.12 7.17,8.49 a 1.36,1.35 51.3 0 0 1.88,0.21 l 2.77,-2.15 c -3.26,18.01 -17,23.73 -33.52,24 q -8.19,0.14 -17.08,0.16 -0.2,-0.12 -1.14,-0.01 0.12,-0.37 0.08,-0.7 -0.03,-0.28 -0.3,-0.59 -4.29,-4.83 -8.26,-10.37 l 5.66,-0.2 3.16,0.22 23.28,9.69 a 1.48,1.48 0 0 0 1.53,-0.24 l 7.67,-6.55 a 0.93,0.95 66.2 0 0 0.33,-0.83 c -0.18,-1.5 -0.58,-2.89 -0.74,-4.42 q -0.08,-0.78 -0.68,-1.35 0.05,-0.26 0.51,-0.35 c 4.93,-3.88 6.65,-9.5 6.47,-15.64 z"
     id="path816" />
  <path
     fill="#e04600"
     d="m 675.41744,259.58866 0.04,10.89 0.16,3.09 q 0.02,0.5 0.52,0.58 l 1.84,0.3 q 3.97,5.54 8.26,10.37 0.27,0.31 0.3,0.59 0.04,0.33 -0.08,0.7 l -10.41,0.09 q -0.51,0.01 -0.52,0.51 l -0.08,2.41 q -0.78,0.02 -1.01,-0.29 -5.58,-7.23 -12.17,-14.22 l -0.18,-1.43 0.02,-8.1 0.13,-1.32 7.36,-5.5 q 0.38,-0.29 0.83,-0.15 z"
     id="path818"
     style="fill:#fe5000;fill-opacity:1" />
  <path
     fill="#e04600"
     d="m 718.18744,270.76866 q 0.6,0.57 0.68,1.35 c 0.16,1.53 0.56,2.92 0.74,4.42 a 0.93,0.95 66.2 0 1 -0.33,0.83 l -7.67,6.55 a 1.48,1.48 0 0 1 -1.53,0.24 l -23.28,-9.69 q 14.92,-0.18 19.13,-0.33 6.38,-0.24 12.26,-3.37 z"
     id="path824"
     style="fill:#fe5000;fill-opacity:1" />
  <path
     fill="#fe5000"
     d="m 662.26744,274.60866 q 6.59,6.99 12.17,14.22 0.23,0.31 1.01,0.29 l 0.01,2.19 -0.03,35.01 q 0,0.52 -0.51,0.51 l -12.63,-0.06 q 0.11,-0.09 -0.07,-0.34 1.9,-1.23 3.87,-3.87 2.93,-3.9 4.05,-6.9 3.29,-8.82 -3.92,-14.62 -1.6,-1.28 -3.99,-1.75 0.25,-0.18 0.01,-0.92 z"
     id="path826" />
  <path
     fill="#e04600"
     d="m 626.76744,292.43866 q 0.12,0.02 0.24,0.04 l 4.82,6.66 q 0.08,0.1 0.15,0.21 c -2.13,1.84 -7.98,6.66 -7.14,9.93 1.14,4.46 9.23,0.17 11.34,-1.43 q 0.45,-0.35 1.23,0 l 5.28,8.34 -12.79,5.82 q -0.09,0 -0.24,-0.22 l -12.15,-19.01 q -0.14,-0.17 -0.29,-0.34 3.98,-5.68 9.55,-10 z"
     id="path832"
     style="fill:#fe5000;fill-opacity:1" />
  <path
     fill="#fe5000"
     d="m 631.97744,299.34866 5.43,8.5 q -0.78,-0.35 -1.23,0 c -2.11,1.6 -10.2,5.89 -11.34,1.43 -0.84,-3.27 5.01,-8.09 7.14,-9.93 z"
     id="path836" />
  <path
     fill="#e04600"
     d="m 662.22744,299.28866 q 2.39,0.47 3.99,1.75 7.21,5.8 3.92,14.62 -1.12,3 -4.05,6.9 -1.97,2.64 -3.87,3.87 z"
     id="path838"
     style="fill:#fe5000;fill-opacity:1" />
  <path
     fill="#fe5000"
     d="m 642.68744,316.18866 q 0.05,0.02 0.1,0.04 l 6.47,10.18 q 0.25,0.28 -0.88,0.58 l -14.98,-0.17 q -0.51,0 -0.78,-0.44 l -2.72,-4.37 z"
     id="path844" />
</svg>
